# xmcd CD database file
#
# Track frame offsets:
#	150
#	14862
#	37153
#	73505
#	95134
#	126649
#	146345
#	167784
#	188131
#	213001
#	230585
#	250716
#
# Disc length: 3577 seconds
#
# Revision: 2
# Processed by: cddbd v1.5.2PL0 Copyright (c) Steve Scherf et al.
# Submitted via: CDex 1.51
#
DISCID=b40df70c
DTITLE=JOHN PRIMER - Chicago Blues Session Volume 29(Blues Behind Closed Doors
DYEAR=1900
DGENRE=Chicago Blues
TTITLE0=1839
TTITLE1=Somebody Have Mercy
TTITLE2=Good Morning Heartache
TTITLE3=Don't You Hear Me Cryin' For You
TTITLE4=Blues Behind Closed Doors
TTITLE5=I'm Just A Fool 
TTITLE6=Smokestack
TTITLE7=Next Time You See Me
TTITLE8=Country Boy
TTITLE9=Yes, I'm Crazy About My Baby
TTITLE10=It Ain't Easy Been Easy
TTITLE11=Tore Down
EXTD=0\n\n\nsubmitted by Stamppot
EXTT0=
EXTT1=
EXTT2=
EXTT3=
EXTT4=
EXTT5=
EXTT6=
EXTT7=
EXTT8=
EXTT9=
EXTT10=
EXTT11=
PLAYORDER=
